<svg id="SvgjsSvg1001" width="288" height="288" xmlns="http://www.w3.org/2000/svg" version="1.1" xmlns:xlink="http://www.w3.org/1999/xlink" xmlns:svgjs="http://svgjs.com/svgjs"><defs id="SvgjsDefs1002"></defs><g id="SvgjsG1008" transform="matrix(0.9167,0,0,0.9167,12.029798492813114,11.960790259170551)"><!--?xml version="1.0" encoding="UTF-8" standalone="no"?--><svg xmlns:dc="http://purl.org/dc/elements/1.1/" xmlns:cc="http://creativecommons.org/ns#" xmlns:rdf="http://www.w3.org/1999/02/22-rdf-syntax-ns#" xmlns:svg="http://www.w3.org/2000/svg" xmlns="http://www.w3.org/2000/svg" xmlns:sodipodi="http://sodipodi.sourceforge.net/DTD/sodipodi-0.dtd" xmlns:inkscape="http://www.inkscape.org/namespaces/inkscape" version="1.1" id="Layer_1" x="0px" y="0px" viewBox="0 0 32 32" style="enable-background:new 0 0 32 32;" xml:space="preserve" inkscape:version="0.91 r13725" sodipodi:docname="1 Crafting 50-50.svg" width="288" height="288"><defs id="defs9"></defs><sodipodi:namedview pagecolor="#ffffff" bordercolor="#666666" borderopacity="1" objecttolerance="10" gridtolerance="10" guidetolerance="10" inkscape:pageopacity="0" inkscape:pageshadow="2" inkscape:window-width="1366" inkscape:window-height="705" id="namedview7" showgrid="true" inkscape:snap-bbox="true" inkscape:bbox-paths="true" inkscape:bbox-nodes="true" inkscape:snap-bbox-edge-midpoints="true" inkscape:snap-bbox-midpoints="true" inkscape:zoom="20.85965" inkscape:cx="2.2876883" inkscape:cy="10.169898" inkscape:window-x="-8" inkscape:window-y="-8" inkscape:window-maximized="1" inkscape:current-layer="Layer_1"><inkscape:grid type="xygrid" id="grid4140"></inkscape:grid></sodipodi:namedview><style type="text/css" id="style3">
	.st0{fill:none;stroke:#000000;stroke-linecap:round;stroke-linejoin:round;stroke-miterlimit:10;}
	.st1{fill:none;stroke:#010101;stroke-linecap:round;stroke-linejoin:round;stroke-miterlimit:10;}
	.st2{fill:none;stroke:#060707;stroke-linecap:round;stroke-linejoin:round;stroke-miterlimit:10;}
	.st3{fill:#010101;}
	.st4{fill:#FFFFFF;stroke:#010101;stroke-linecap:round;stroke-linejoin:round;stroke-miterlimit:10;}
</style><path style="stroke: none;" d="m 24.1775,5.9082035 c -0.128,0 -0.256015,0.048984 -0.353515,0.1464844 l -1.060547,1.0605469 c -0.195,-0.195 -0.512031,-0.195 -0.707031,0 L 7.9138281,21.257813 c -0.026,0.026 -0.039594,0.05984 -0.058594,0.08984 -0.009,0.015 -0.025203,0.02306 -0.033203,0.03906 l -1.4160155,2.828131 c -0.096,0.192 -0.05925,0.426125 0.09375,0.578125 L 6.14625,25.146484 c -0.195,0.195 -0.195,0.512032 0,0.707032 C 6.24425,25.951516 6.3717656,26 6.4997656,26 c 0.128,0 0.2574688,-0.04948 0.3554688,-0.146484 L 7.20875,25.5 c 0.096,0.096 0.2235156,0.144531 0.3535156,0.144531 0.076,0 0.1526094,-0.01773 0.2246094,-0.05273 L 10.615,24.177734 c 0.017,-0.008 0.02602,-0.02516 0.04102,-0.03516 0.03,-0.019 0.06284,-0.03259 0.08984,-0.05859 l 13.078125,-13.080078 0.355468,0.353516 c 0.195001,0.195 0.195,0.512031 0,0.707031 l -4.951171,4.949219 c -0.195,0.195 -0.195,0.512031 0,0.707031 0.098,0.098 0.225515,0.146484 0.353515,0.146484 0.128,0 0.257469,-0.04948 0.355469,-0.146484 l 4.949219,-4.949219 c 0.585,-0.585 0.585,-1.536093 0,-2.121093 l -0.353516,-0.353516 0.353516,-0.3554684 c 0.094,-0.094 0.146484,-0.2205156 0.146484,-0.3535156 0,-0.133 -0.05348,-0.2595156 -0.146484,-0.3535156 l 1.060547,-1.0605469 c 0.194,-0.194 0.194046,-0.5100781 -0.002,-0.7050781 L 24.531016,6.0546879 C 24.433516,5.9571879 24.3055,5.9082035 24.1775,5.9082035 Z m 0,1.2050781 0.707032,0.7070313 L 24.179453,8.5273442 23.823985,8.1738285 23.470469,7.8203129 24.1775,7.1132816 Z m -1.767578,1.0625 1.416016,1.4140626 -0.353516,0.3535156 -1.533203,1.5332032 -2.357422,-0.470704 2.828125,-2.8300774 z m -3.679687,3.6796874 2.355468,0.470703 -0.5625,0.564453 -2.357421,-0.470703 0.564453,-0.564453 z m -1.414063,1.414062 2.357422,0.470703 -0.564453,0.566407 -2.357422,-0.470704 0.564453,-0.566406 z m -1.414062,1.414063 2.357422,0.470703 -7.869141,7.86914 L 9.6833594,22.316406 8.9763281,21.609375 15.90211,14.683594 Z m -7.4960944,7.771484 0.5703125,0.570313 0.5683594,0.570312 -1.8847657,0.941406 -0.1972656,-0.197265 0.9433594,-1.884766 z" id="path5" inkscape:connector-curvature="0" fill="#000000" class="colorrgb000 svgShape"></path>
	<metadata>
		<rdf:rdf xmlns:rdf="http://www.w3.org/1999/02/22-rdf-syntax-ns#" xmlns:rdfs="http://www.w3.org/2000/01/rdf-schema#" xmlns:dc="http://purl.org/dc/elements/1.1/">
			<rdf:description about="https://iconscout.com/legal#licenses" dc:title="50 pen write study edit stationary crafting" dc:description="50 pen write study edit stationary crafting" dc:publisher="Iconscout" dc:date="2017-03-27" dc:format="image/svg+xml" dc:language="en">
				<dc:creator>
					<rdf:bag>
						<rdf:li>Jemis Mali</rdf:li>
					</rdf:bag>
				</dc:creator>
			</rdf:description>
		</rdf:rdf>
    </metadata></svg>
</g></svg>