<?xml version="1.0" encoding="UTF-8" standalone="no"?>
<svg xmlns:dc="http://purl.org/dc/elements/1.1/" xmlns:cc="http://creativecommons.org/ns#" xmlns:rdf="http://www.w3.org/1999/02/22-rdf-syntax-ns#" xmlns:svg="http://www.w3.org/2000/svg" xmlns="http://www.w3.org/2000/svg" xmlns:sodipodi="http://sodipodi.sourceforge.net/DTD/sodipodi-0.dtd" xmlns:inkscape="http://www.inkscape.org/namespaces/inkscape" width="32" height="32" viewBox="0 0 8.4666665 8.4666669" version="1.1" id="svg8" inkscape:version="0.91 r13725" sodipodi:docname="r2-d2-robot-starwars-movie-r2d2-science-space.svg">
  <defs id="defs2"/>
  <sodipodi:namedview id="base" pagecolor="#ffffff" bordercolor="#666666" borderopacity="1.0" inkscape:pageopacity="0.0" inkscape:pageshadow="2" inkscape:zoom="11.2" inkscape:cx="-2.9316573" inkscape:cy="11.615179" inkscape:document-units="mm" inkscape:current-layer="layer1" showgrid="false" units="px" inkscape:window-width="1366" inkscape:window-height="716" inkscape:window-x="-8" inkscape:window-y="-8" inkscape:window-maximized="1"/>
  
  <g inkscape:label="Layer 1" inkscape:groupmode="layer" id="layer1" transform="translate(0,-288.53332)">
    <path inkscape:connector-curvature="0" id="path15964" d="m 3.9027036,288.73185 c -0.5909946,0 -1.1144489,0.28966 -1.4397065,0.73326 l 3.5408686,0 c -0.325255,-0.4436 -0.8487119,-0.73326 -1.4397038,-0.73326 z" style="color:#000000;font-style:normal;font-variant:normal;font-weight:normal;font-stretch:normal;font-size:medium;line-height:normal;font-family:sans-serif;text-indent:0;text-align:start;text-decoration:none;text-decoration-line:none;text-decoration-style:solid;text-decoration-color:#000000;letter-spacing:normal;word-spacing:normal;text-transform:none;direction:ltr;writing-mode:lr-tb;baseline-shift:baseline;text-anchor:start;white-space:normal;clip-rule:nonzero;display:inline;overflow:visible;visibility:visible;opacity:1;isolation:auto;mix-blend-mode:normal;color-interpolation:sRGB;color-interpolation-filters:linearRGB;solid-color:#000000;solid-opacity:1;fill:#3b3c3d;fill-opacity:1;fill-rule:nonzero;stroke:none;stroke-width:1;stroke-linecap:round;stroke-linejoin:round;stroke-miterlimit:4;stroke-dasharray:none;stroke-dashoffset:0;stroke-opacity:1;color-rendering:auto;image-rendering:auto;shape-rendering:auto;text-rendering:auto;enable-background:accumulate"/>
    <path id="path15966" d="m 2.1166708,290.90879 0,0.66714 0.6614583,0 0,2.38125 -0.6614583,0 0,0.92605 c 7.9e-6,0.073 0.059232,0.13226 0.1322916,0.13229 l 3.9687501,0 c 0.073059,-3e-5 0.1322838,-0.0592 0.1322917,-0.13229 l 0,-0.92605 -0.6614584,0 0,-2.38125 0.6614584,0 0,-0.66714 z m 1.1813222,0.7307 a 0.13230488,0.13230489 0 0 1 0.013441,0 l 1.8484665,0 a 0.13230488,0.13230489 0 1 1 0,0.26459 l -1.8484665,0 a 0.13246226,0.13246227 0 1 1 -0.013441,-0.26459 z m 0,0.52917 a 0.13230488,0.13230489 0 0 1 0.013441,0 l 1.8484665,0 a 0.13230488,0.13230489 0 1 1 0,0.26458 l -1.8484665,0 a 0.13246226,0.13246227 0 1 1 -0.013441,-0.26458 z m 0.4082442,0.79375 1.0583334,0 0,1.32292 -1.0583334,0 z" style="color:#000000;font-style:normal;font-variant:normal;font-weight:normal;font-stretch:normal;font-size:medium;line-height:normal;font-family:sans-serif;text-indent:0;text-align:start;text-decoration:none;text-decoration-line:none;text-decoration-style:solid;text-decoration-color:#000000;letter-spacing:normal;word-spacing:normal;text-transform:none;direction:ltr;writing-mode:lr-tb;baseline-shift:baseline;text-anchor:start;white-space:normal;clip-rule:nonzero;display:inline;overflow:visible;visibility:visible;opacity:1;isolation:auto;mix-blend-mode:normal;color-interpolation:sRGB;color-interpolation-filters:linearRGB;solid-color:#000000;solid-opacity:1;fill:#3b3c3d;fill-opacity:1;fill-rule:nonzero;stroke:none;stroke-width:1;stroke-linecap:round;stroke-linejoin:round;stroke-miterlimit:4;stroke-dasharray:none;stroke-dashoffset:0;stroke-opacity:1;color-rendering:auto;image-rendering:auto;shape-rendering:auto;text-rendering:auto;enable-background:accumulate" inkscape:connector-curvature="0"/>
    <path inkscape:connector-curvature="0" id="path15968" d="m 2.6458427,295.2175 0.3080306,0.30803 a 0.52916668,0.52916672 0 0 0 0.3741791,0.15499 l 1.8105808,0 a 0.52916668,0.52916672 0 0 0 0.374179,-0.15499 l 0.3080306,-0.30803" style="fill:#3b3c3d;fill-rule:evenodd;stroke:none;stroke-width:1px;stroke-linecap:butt;stroke-linejoin:round;stroke-opacity:1"/>
    <path inkscape:connector-curvature="0" id="path15970" d="m 5.2917661,289.92247 0,0.52917 1.0547138,0 c -0.00683,-0.18497 -0.041616,-0.36258 -0.1007692,-0.52917 z" style="fill:#3b3c3d;fill-rule:evenodd;stroke:none;stroke-width:1px;stroke-linecap:butt;stroke-linejoin:round;stroke-opacity:1"/>
    <path inkscape:connector-curvature="0" id="path15972" d="m 4.5640667,290.18687 a 0.33072918,0.3307292 0 0 1 -0.3307292,0.33073 0.33072918,0.3307292 0 0 1 -0.3307292,-0.33073 0.33072918,0.3307292 0 0 1 0.3307292,-0.33073 0.33072918,0.3307292 0 0 1 0.3307292,0.33073 z" style="opacity:1;fill:#3b3c3d;fill-opacity:1;stroke:none;stroke-width:1;stroke-linecap:butt;stroke-linejoin:round;stroke-miterlimit:4;stroke-dasharray:none;stroke-opacity:1"/>
    <path inkscape:connector-curvature="0" id="path15974" d="m 2.2211521,289.92247 c -0.059153,0.16659 -0.093948,0.3442 -0.1007692,0.52917 l 1.0547165,0 0,-0.52917 z" style="fill:#3b3c3d;fill-rule:evenodd;stroke:none;stroke-width:1px;stroke-linecap:butt;stroke-linejoin:round;stroke-opacity:1"/>
    <path inkscape:connector-curvature="0" id="path15976" d="m 3.1750094,295.87541 -0.396875,0.92605 2.9104167,0 -0.396875,-0.92605 -0.9260417,0 0,0.52917 -0.2645833,0 0,-0.52917 z" style="fill:#3b3c3d;fill-rule:evenodd;stroke:none;stroke-width:1px;stroke-linecap:round;stroke-linejoin:round;stroke-opacity:1"/>
    <path style="fill:#808080;fill-rule:evenodd;stroke:none;stroke-width:1px;stroke-linecap:butt;stroke-linejoin:miter;stroke-opacity:1" d="m 7.009584,293.36187 0,1.19063" id="path15978" inkscape:connector-curvature="0"/>
    <path style="fill:#3b3c3d;fill-rule:evenodd;stroke:none;stroke-width:1px;stroke-linecap:round;stroke-linejoin:round;stroke-opacity:1" d="m 6.6145875,291.31135 0.5291667,0 a 0.26458334,0.26458336 0 0 1 0.2645834,0.26458 l 0,1.5875 a 0.26458334,0.26458336 0 0 1 -0.2645834,0.26459 l -0.5291667,0 z" id="path15980" inkscape:connector-curvature="0"/>
    <path sodipodi:nodetypes="ccccccssc" inkscape:connector-curvature="0" id="path15982" d="m 6.6145875,296.27229 1.1887386,0 0,-0.1777 c 0,-0.14033 -0.055753,-0.27492 -0.1549876,-0.37417 l -0.164391,-0.16438 c -0.04962,-0.0496 -0.077496,-0.11692 -0.077496,-0.18709 l 0,-0.55187 c 0,-0.14613 -0.1184566,-0.26458 -0.2645834,-0.26458 l -0.5272802,0" style="fill:#3b3c3d;fill-rule:evenodd;stroke:none;stroke-width:1px;stroke-linecap:round;stroke-linejoin:round;stroke-opacity:1"/>
    <rect y="293.6926" x="6.7468791" height="0.59531254" width="0.39687502" id="rect15984" style="opacity:1;fill:#3b3c3d;fill-opacity:1;stroke:none;stroke-width:2.5;stroke-linecap:butt;stroke-linejoin:round;stroke-miterlimit:4;stroke-dasharray:none;stroke-opacity:1"/>
    <path inkscape:connector-curvature="0" id="path15986" d="m 1.8520795,291.31135 -0.5291667,0 a 0.26458334,0.26458336 0 0 0 -0.2645833,0.26458 l 0,1.5875 a 0.26458334,0.26458336 0 0 0 0.2645833,0.26459 l 0.5291667,0 z" style="fill:#3b3c3d;fill-rule:evenodd;stroke:none;stroke-width:1px;stroke-linecap:round;stroke-linejoin:round;stroke-opacity:1"/>
    <path style="fill:#3b3c3d;fill-rule:evenodd;stroke:none;stroke-width:1px;stroke-linecap:round;stroke-linejoin:round;stroke-opacity:1" d="m 1.8520795,296.27229 -1.18873857,0 0,-0.1777 c 0,-0.14033 0.055753,-0.27492 0.15498763,-0.37417 l 0.16439092,-0.16438 c 0.0496199,-0.0496 0.0774964,-0.11692 0.0774964,-0.18709 l 0,-0.55187 c 0,-0.14613 0.1184566,-0.26458 0.2645834,-0.26458 l 0.5272802,0" id="path15988" inkscape:connector-curvature="0" sodipodi:nodetypes="ccccccssc"/>
    <rect transform="scale(-1,1)" style="opacity:1;fill:#3b3c3d;fill-opacity:1;stroke:none;stroke-width:2.5;stroke-linecap:butt;stroke-linejoin:round;stroke-miterlimit:4;stroke-dasharray:none;stroke-opacity:1" id="rect15990" width="0.39687502" height="0.59531254" x="-1.7197957" y="293.6926"/>
  </g>

	<metadata>
		<rdf:RDF xmlns:rdf="http://www.w3.org/1999/02/22-rdf-syntax-ns#" xmlns:rdfs="http://www.w3.org/2000/01/rdf-schema#" xmlns:dc="http://purl.org/dc/elements/1.1/">
			<rdf:Description about="https://iconscout.com/legal#licenses" dc:title="r2-d2-robot-starwars-movie-r2d2-science-space" dc:description="r2-d2-robot-starwars-movie-r2d2-science-space" dc:publisher="Iconscout" dc:date="2017-05-19" dc:format="image/svg+xml" dc:language="en">
				<dc:creator>
					<rdf:Bag>
						<rdf:li>Vignesh Oviyan</rdf:li>
					</rdf:Bag>
				</dc:creator>
			</rdf:Description>
		</rdf:RDF>
    </metadata></svg>
